<svg width="831" height="182" viewBox="0 0 831 182" fill="none" xmlns="http://www.w3.org/2000/svg">
<g clip-path="url(#clip0_4240_4745)">
<path d="M157.495 0.0078125H23.907C10.7035 0.0078125 0 10.7113 0 23.9148V157.503C0 170.707 10.7035 181.41 23.907 181.41H157.495C170.699 181.41 181.402 170.707 181.402 157.503V23.9148C181.402 10.7113 170.699 0.0078125 157.495 0.0078125Z" fill="#8200FA"/>
<path d="M73.4943 124.342L91.0278 51.2345C91.3745 49.7945 92.8278 48.9012 94.2679 49.2479L115.161 54.2613C116.602 54.6079 117.495 56.0613 117.148 57.5013L99.6146 130.622C99.2679 132.062 97.8146 132.956 96.3746 132.609L75.4809 127.596C74.0409 127.249 73.1476 125.796 73.4943 124.356V124.342ZM122.428 132.129H143.909C145.389 132.129 146.589 130.929 146.589 129.449V54.2613C146.589 52.7812 145.389 51.5812 143.909 51.5812H122.415C120.935 51.5812 119.735 52.7812 119.735 54.2613V129.449C119.735 130.929 120.935 132.129 122.415 132.129H122.428ZM29.3203 121.422L48.6273 130.836C49.9606 131.489 51.5606 130.929 52.214 129.596L85.1877 62.0214C85.8411 60.688 85.2811 59.088 83.9477 58.4346L64.6408 49.0212C63.3074 48.3678 61.7074 48.9278 61.0541 50.2612L28.0936 117.822C27.4403 119.155 27.987 120.769 29.3203 121.422Z" fill="white"/>
<path d="M274.737 130.796V92.3823H239.43V130.796C239.43 131.73 238.67 132.476 237.75 132.476H223.576C222.643 132.476 221.896 131.716 221.896 130.796V52.3285C221.896 51.3951 222.656 50.6484 223.576 50.6484H237.75C238.683 50.6484 239.43 51.4085 239.43 52.3285V76.9421H274.737V52.3285C274.737 51.3951 275.497 50.6484 276.417 50.6484H290.591C291.524 50.6484 292.271 51.4085 292.271 52.3285V130.796C292.271 131.73 291.511 132.476 290.591 132.476H276.417C275.484 132.476 274.737 131.716 274.737 130.796Z" fill="#220041"/>
<path d="M356.058 119.543C356.832 120.063 357.032 121.116 356.512 121.89C351.645 129.316 343.085 133.77 331.205 133.77C315.191 133.77 300.804 123.13 300.804 103.023C300.804 82.9157 314.484 72.7422 330.031 72.7422C337.978 72.7422 344.525 75.3156 349.792 80.4623C354.938 85.609 357.618 92.5025 357.978 101.276C358.045 103.196 358.072 104.556 358.085 105.543C358.098 106.529 357.338 107.236 356.405 107.236H319.458C318.404 107.236 317.591 108.196 317.791 109.223C319.164 116.329 325.058 120.556 332.031 120.556C337.431 120.556 342.071 118.249 345.071 114.076C345.591 113.343 346.618 113.169 347.365 113.676L356.072 119.543H356.058ZM317.884 96.4758H341.031C340.685 89.1157 335.298 85.7157 329.578 85.7157C323.858 85.7157 318.471 89.3424 317.884 96.4758Z" fill="#220041"/>
<path d="M365.685 130.795V50.221C365.685 49.2877 366.445 48.541 367.365 48.541H380.832C381.765 48.541 382.512 49.301 382.512 50.221V130.795C382.512 131.729 381.752 132.475 380.832 132.475H367.365C366.432 132.475 365.685 131.715 365.685 130.795Z" fill="#220041"/>
<path d="M411.046 127.916V152.996C411.046 153.93 410.286 154.676 409.366 154.676H395.899C394.965 154.676 394.219 153.916 394.219 152.996V75.9285C394.219 74.9951 394.979 74.2484 395.899 74.2484H408.192C409.126 74.2484 409.872 75.0084 409.872 75.9285V79.8485C413.499 75.6351 418.872 72.9551 425.766 72.9551C439.566 72.9551 452.073 83.1285 452.073 103.235C452.073 123.342 439.326 133.396 425.766 133.396C419.806 133.396 414.779 131.169 411.032 127.902L411.046 127.916ZM435.006 103.249C435.006 92.6087 429.166 87.9286 422.726 87.9286C416.286 87.9286 411.152 92.3687 411.032 99.5021V106.756C411.152 113.889 416.299 118.449 422.726 118.449C429.153 118.449 435.006 113.662 435.006 103.249Z" fill="#220041"/>
<path d="M480.713 91.3286C480.713 65.0216 499.3 49.248 520.34 49.248C538.727 49.248 551.461 58.8215 555.794 74.1017C556.047 75.0217 555.461 75.9551 554.541 76.1684L540.727 79.2885C539.887 79.4751 539.034 79.0084 538.767 78.1951C537.794 75.1417 535.941 72.355 533.314 69.8217C530.154 66.9016 525.834 65.5016 520.22 65.5016C508.527 65.5016 498.833 75.4351 498.833 91.3419C498.833 108.289 508.767 117.529 520.34 117.529C531.247 117.529 537.701 110.462 539.967 102.302C540.207 101.462 541.061 100.955 541.914 101.129L555.754 103.969C556.661 104.155 557.274 105.049 557.074 105.955C555.247 114.302 551.154 120.996 544.901 125.929C538.114 131.196 529.82 133.876 520.114 133.876C499.193 133.876 480.713 118.449 480.713 91.3286Z" fill="#220041"/>
<path d="M616.622 119.543C617.395 120.063 617.595 121.116 617.075 121.89C612.208 129.316 603.648 133.77 591.768 133.77C575.755 133.77 561.368 123.13 561.368 103.023C561.368 82.9157 575.048 72.7422 590.595 72.7422C598.542 72.7422 605.088 75.3156 610.355 80.4623C615.502 85.609 618.182 92.5025 618.542 101.276C618.608 103.196 618.635 104.556 618.648 105.543C618.662 106.529 617.902 107.236 616.968 107.236H578.101C578.688 115.543 584.995 120.569 592.595 120.569C597.995 120.569 602.635 118.263 605.635 114.089C606.155 113.356 607.182 113.183 607.928 113.689L616.635 119.556L616.622 119.543ZM578.448 96.4758H601.595C601.248 89.1157 595.861 85.7157 590.141 85.7157C584.421 85.7157 579.035 89.3424 578.448 96.4758Z" fill="#220041"/>
<path d="M643.089 96.0483V130.795C643.089 131.729 642.329 132.475 641.409 132.475H627.942C627.008 132.475 626.262 131.715 626.262 130.795V75.9414C626.262 75.008 627.022 74.2613 627.942 74.2613H641.409C642.342 74.2613 643.089 75.0214 643.089 75.9414V81.2748C646.715 76.128 652.555 72.8613 660.155 72.8613C671.969 72.8613 680.849 80.1148 680.849 95.8883V130.795C680.849 131.729 680.089 132.475 679.169 132.475H665.702C664.769 132.475 664.022 131.715 664.022 130.795V99.275C664.022 91.3282 660.049 87.9415 653.969 87.9415C649.742 87.9415 645.529 90.5016 643.262 95.3016C643.155 95.5283 643.102 95.795 643.102 96.0483H643.089Z" fill="#220041"/>
<path d="M726.33 126.889C726.743 127.649 726.53 128.596 725.823 129.089C722.196 131.689 717.383 133.289 711.836 133.289C701.543 133.289 693.596 127.676 693.596 114.702L693.716 88.1686H687.103C686.169 88.1686 685.423 87.4086 685.423 86.4886V75.9417C685.423 75.0084 686.183 74.2617 687.103 74.2617H693.836V60.3949C693.836 59.4615 694.596 58.7148 695.516 58.7148H708.516C709.45 58.7148 710.196 59.4749 710.196 60.3949V74.2617H723.01C723.943 74.2617 724.69 75.0217 724.69 75.9417V86.4886C724.69 87.4219 723.93 88.1686 723.01 88.1686H710.076V113.062C710.076 118.209 712.41 119.489 715.343 119.489C716.81 119.489 718.21 118.982 719.543 118.156C720.343 117.662 721.41 117.969 721.863 118.796L726.33 126.876V126.889Z" fill="#220041"/>
<path d="M781.917 119.543C782.691 120.063 782.891 121.116 782.371 121.89C777.504 129.316 768.944 133.77 757.063 133.77C741.05 133.77 726.663 123.13 726.663 103.023C726.663 82.9157 740.343 72.7422 755.89 72.7422C763.837 72.7422 770.384 75.3156 775.65 80.4623C780.797 85.609 783.477 92.5025 783.837 101.276C783.904 103.196 783.931 104.556 783.944 105.543C783.957 106.529 783.197 107.236 782.264 107.236H743.397C743.983 115.543 750.29 120.569 757.89 120.569C763.29 120.569 767.93 118.263 770.93 114.089C771.45 113.356 772.477 113.183 773.224 113.689L781.931 119.556L781.917 119.543ZM743.743 96.4758H766.89C766.544 89.1157 761.157 85.7157 755.437 85.7157C749.717 85.7157 744.33 89.3424 743.743 96.4758Z" fill="#220041"/>
<path d="M808.384 95.1157V130.796C808.384 131.73 807.624 132.476 806.704 132.476H793.237C792.304 132.476 791.557 131.716 791.557 130.796V75.9421C791.557 75.0088 792.317 74.2621 793.237 74.2621H806.704C807.638 74.2621 808.384 75.0221 808.384 75.9421V81.0355C811.078 76.8221 815.398 73.3154 820.891 73.3154C824.598 73.3154 827.678 74.3154 829.771 75.3821C830.531 75.7688 830.851 76.6755 830.545 77.4622L826.118 89.169C825.771 90.089 824.705 90.5023 823.824 90.089C821.824 89.1423 819.718 88.6356 817.611 88.6356C813.664 88.6356 810.158 91.1423 808.544 94.3557C808.424 94.5957 808.371 94.8491 808.371 95.1157H808.384Z" fill="#220041"/>
</g>
<defs>
<clipPath id="clip0_4240_4745">
<rect width="830.665" height="181.417" fill="white"/>
</clipPath>
</defs>
</svg>
